<?xml version="1.0" encoding="UTF-8" standalone="no"?>
<!-- Created with Inkscape (http://www.inkscape.org/) -->

<svg
   width="210mm"
   height="297mm"
   viewBox="0 0 210 297"
   version="1.1"
   id="svg5"
   inkscape:version="1.2.1 (9c6d41e410, 2022-07-14)"
   sodipodi:docname="timbro_notte_dei_ricercatori_2022_final.svg"
   inkscape:export-filename="timbro_notte_dei_ricercatori_2022_final.png"
   inkscape:export-xdpi="96"
   inkscape:export-ydpi="96"
   xmlns:inkscape="http://www.inkscape.org/namespaces/inkscape"
   xmlns:sodipodi="http://sodipodi.sourceforge.net/DTD/sodipodi-0.dtd"
   xmlns:xlink="http://www.w3.org/1999/xlink"
   xmlns="http://www.w3.org/2000/svg"
   xmlns:svg="http://www.w3.org/2000/svg">
  <sodipodi:namedview
     id="namedview7"
     pagecolor="#ffffff"
     bordercolor="#000000"
     borderopacity="0.25"
     inkscape:showpageshadow="2"
     inkscape:pageopacity="0.0"
     inkscape:pagecheckerboard="0"
     inkscape:deskcolor="#d1d1d1"
     inkscape:document-units="mm"
     showgrid="false"
     inkscape:zoom="3.2857066"
     inkscape:cx="175.76128"
     inkscape:cy="537.32735"
     inkscape:window-width="1920"
     inkscape:window-height="1001"
     inkscape:window-x="-9"
     inkscape:window-y="-9"
     inkscape:window-maximized="1"
     inkscape:current-layer="layer1"
     showguides="true">
    <sodipodi:guide
       position="35.027027,181.6571"
       orientation="0,-1"
       id="guide406"
       inkscape:locked="false" />
    <sodipodi:guide
       position="39.952703,172.53547"
       orientation="0,-1"
       id="guide408"
       inkscape:locked="false" />
  </sodipodi:namedview>
  <defs
     id="defs2">
    <symbol
       id="symbol14968">
      <path
         style="fill:#000000;fill-opacity:1;fill-rule:evenodd;stroke:#000000;stroke-width:0.855762pt;stroke-linecap:butt;stroke-linejoin:miter;stroke-opacity:1"
         d="m 462.29467,664.32769 c -122.0804,124.72233 -2.40813,215.19165 94.11395,155.64651 -18.22494,64.96823 -28.24741,70.08028 -39.31195,87.18963 H 621.31128 C 607.93386,889.88674 593.8851,884.94243 579.65132,820.344 678.19802,876.95357 782.0612,778.23048 672.71168,664.32769 601.19699,601.7731 573.43245,544.66342 567.50319,536.55402 c -5.68921,6.75662 -39.20801,66.37968 -105.20852,127.77367 z"
         id="path2076"
         sodipodi:nodetypes="cccccccc" />
    </symbol>
    <symbol
       id="symbol14982">
      <path
         sodipodi:nodetypes="ccccccccccccccccccccc"
         id="path30"
         d="m 216.50043,906.61239 c -0.3432,-0.61825 -1.81867,-5.08821 -3.27883,-9.93328 C 203.96781,865.97319 186.78919,834.88002 158.02135,796.767 147.21332,782.44803 137.04027,769.76836 109.53195,736.32989 77.680663,697.61227 68.557087,685.20914 59.344127,668.10174 53.903664,657.99946 48.265682,642.62811 46.41034,632.83915 c -1.854284,-9.78328 -1.884514,-25.76677 -0.06449,-34.08951 7.403277,-33.85415 37.474711,-59.39471 73.43295,-62.36878 41.19287,-3.40701 76.23264,17.40237 94.64341,56.20672 l 4.11116,8.66507 3.09417,-6.84536 c 4.59763,-10.17145 9.02537,-17.05079 16.49892,-25.63414 19.02798,-21.85364 41.67355,-32.55863 68.95442,-32.59608 12.21998,-0.0168 19.2223,0.99749 29.63542,4.29255 15.57394,4.92811 27.29757,12.6053 37.73867,24.71314 27.20989,31.55337 23.98818,74.53993 -9.53244,127.1876 -7.81932,12.2811 -21.92763,30.452 -41.32995,53.23123 -22.34309,26.23184 -33.26023,39.56342 -44.43732,54.26515 -26.79149,35.24004 -44.8099,67.26021 -54.72093,97.24342 -1.51191,4.57392 -3.09592,8.83598 -3.52003,9.47125 -0.98487,1.47524 -3.60189,1.49361 -4.41387,0.031 z"
         style="fill:#ff0000;fill-opacity:1" />
    </symbol>
  </defs>
  <g
     inkscape:label="Livello 1"
     inkscape:groupmode="layer"
     id="layer1">
    <text
       xml:space="preserve"
       style="font-size:52.9167px;fill:none;stroke:#000000;stroke-width:0.264999;stroke-dasharray:none;stroke-opacity:1"
       x="18.833885"
       y="168.08597"
       id="text1779"><tspan
         sodipodi:role="line"
         id="tspan1777"
         style="font-size:52.9167px;stroke-width:0.265"
         x="18.833885"
         y="168.08597"> </tspan></text>
    <text
       xml:space="preserve"
       style="font-size:52.9167px;fill:none;stroke:#000000;stroke-width:0.264999;stroke-dasharray:none;stroke-opacity:1"
       x="15.659549"
       y="139.72322"
       id="text1779-2-9-2"><tspan
         sodipodi:role="line"
         id="tspan1777-46-1-9"
         style="font-size:52.9167px;fill:#000000;fill-opacity:1;stroke-width:0.265"
         x="15.659549"
         y="139.72322"><tspan
   style="font-style:normal;font-variant:normal;font-weight:normal;font-stretch:normal;font-family:'Juice ITC';-inkscape-font-specification:'Juice ITC';fill:#000000;fill-opacity:1"
   id="tspan2557-8-3-5">∞</tspan> </tspan></text>
    <text
       xml:space="preserve"
       style="font-size:52.9167px;fill:none;stroke:#000000;stroke-width:0.264999;stroke-dasharray:none;stroke-opacity:1"
       x="76.693947"
       y="173.68028"
       id="text1779-2-9-2-5"><tspan
         sodipodi:role="line"
         id="tspan1777-46-1-9-5"
         style="font-size:52.9167px;stroke-width:0.265"
         x="76.693947"
         y="173.68028"> </tspan></text>
    <use
       xlink:href="#symbol14968"
       id="use300"
       transform="matrix(-0.02313939,0,0,0.02484272,40.511611,101.88396)" />
    <use
       xlink:href="#symbol14982"
       id="use389"
       transform="matrix(0.02035285,0,0,0.02444346,42.795642,102.14496)" />
  </g>
</svg>
